<svg width="48" height="48" viewBox="0 0 48 48" fill="none" xmlns="http://www.w3.org/2000/svg">
<g clip-path="url(#clip0_78_235)">
<path d="M24 18C22.4087 18 20.8826 18.6321 19.7574 19.7574C18.6321 20.8826 18 22.4087 18 24C18 25.5913 18.6321 27.1174 19.7574 28.2426C20.8826 29.3679 22.4087 30 24 30C25.5913 30 27.1174 29.3679 28.2426 28.2426C29.3679 27.1174 30 25.5913 30 24C30 22.4087 29.3679 20.8826 28.2426 19.7574C27.1174 18.6321 25.5913 18 24 18ZM24 14C26.6522 14 29.1957 15.0536 31.0711 16.9289C32.9464 18.8043 34 21.3478 34 24C34 26.6522 32.9464 29.1957 31.0711 31.0711C29.1957 32.9464 26.6522 34 24 34C21.3478 34 18.8043 32.9464 16.9289 31.0711C15.0536 29.1957 14 26.6522 14 24C14 21.3478 15.0536 18.8043 16.9289 16.9289C18.8043 15.0536 21.3478 14 24 14ZM37 13.5C37 14.163 36.7366 14.7989 36.2678 15.2678C35.7989 15.7366 35.163 16 34.5 16C33.837 16 33.2011 15.7366 32.7322 15.2678C32.2634 14.7989 32 14.163 32 13.5C32 12.837 32.2634 12.2011 32.7322 11.7322C33.2011 11.2634 33.837 11 34.5 11C35.163 11 35.7989 11.2634 36.2678 11.7322C36.7366 12.2011 37 12.837 37 13.5ZM24 8C19.052 8 18.244 8.014 15.942 8.116C14.374 8.19 13.322 8.4 12.346 8.78C11.478 9.116 10.852 9.518 10.186 10.186C9.56001 10.7908 9.07871 11.5292 8.778 12.346C8.398 13.326 8.188 14.376 8.116 15.942C8.012 18.15 8 18.922 8 24C8 28.948 8.014 29.756 8.116 32.058C8.19 33.624 8.4 34.678 8.778 35.652C9.118 36.522 9.518 37.148 10.182 37.812C10.856 38.484 11.482 38.886 12.342 39.218C13.33 39.6 14.382 39.812 15.942 39.884C18.15 39.988 18.922 40 24 40C28.948 40 29.756 39.986 32.058 39.884C33.622 39.81 34.676 39.6 35.652 39.222C36.518 38.884 37.148 38.482 37.812 37.818C38.486 37.144 38.888 36.518 39.22 35.658C39.6 34.672 39.812 33.618 39.884 32.058C39.988 29.85 40 29.078 40 24C40 19.052 39.986 18.244 39.884 15.942C39.81 14.378 39.6 13.322 39.22 12.346C38.9186 11.53 38.4381 10.7919 37.814 10.186C37.2095 9.55969 36.471 9.07833 35.654 8.778C34.674 8.398 33.622 8.188 32.058 8.116C29.85 8.012 29.078 8 24 8ZM24 4C29.434 4 30.112 4.02 32.244 4.12C34.374 4.22 35.824 4.554 37.1 5.05C38.42 5.558 39.532 6.246 40.644 7.356C41.661 8.35579 42.4479 9.56518 42.95 10.9C43.444 12.174 43.78 13.626 43.88 15.756C43.974 17.888 44 18.566 44 24C44 29.434 43.98 30.112 43.88 32.244C43.78 34.374 43.444 35.824 42.95 37.1C42.4494 38.4356 41.6622 39.6452 40.644 40.644C39.6439 41.6606 38.4346 42.4475 37.1 42.95C35.826 43.444 34.374 43.78 32.244 43.88C30.112 43.974 29.434 44 24 44C18.566 44 17.888 43.98 15.756 43.88C13.626 43.78 12.176 43.444 10.9 42.95C9.56465 42.4489 8.35505 41.6619 7.356 40.644C6.33881 39.6444 5.55186 38.4349 5.05 37.1C4.554 35.826 4.22 34.374 4.12 32.244C4.026 30.112 4 29.434 4 24C4 18.566 4.02 17.888 4.12 15.756C4.22 13.624 4.554 12.176 5.05 10.9C5.55047 9.56436 6.33761 8.35464 7.356 7.356C8.35534 6.33846 9.56486 5.55146 10.9 5.05C12.176 4.554 13.624 4.22 15.756 4.12C17.888 4.026 18.566 4 24 4Z" fill="#03053D"/>
</g>
<defs>
<clipPath id="clip0_78_235">
<rect width="48" height="48" fill="white"/>
</clipPath>
</defs>
</svg>
