<svg width="86" height="71" viewBox="0 0 86 71" fill="none" xmlns="http://www.w3.org/2000/svg">
<g clip-path="url(#clip0_78_200)">
<path fill-rule="evenodd" clip-rule="evenodd" d="M0.000244141 34.4157C0.000244141 38.2575 0.0253922 40.671 0.660053 44.4475C1.15171 47.3731 1.85022 50.0433 2.89476 52.6404L4.22353 55.5356C4.8709 56.7792 5.85365 58.3015 6.65689 59.3722L8.06818 61.1288C8.16535 61.2333 8.23798 61.2856 8.33243 61.3926L9.58697 62.712C10.4426 63.5704 12.0891 64.8693 13.095 65.5399C14.8092 66.6826 16.54 67.6229 18.593 68.4239C21.7974 69.6742 25.2219 70.4046 28.7873 70.7697C33.1029 71.2117 38.9103 70.9866 43.0054 70.3563C44.2432 70.1658 45.3283 69.9481 46.4915 69.6845C48.3664 69.2595 51.1282 68.3882 52.9258 67.7366C53.7763 67.4284 55.1184 66.9208 55.8767 66.4635L57.0413 65.5821C59.4304 63.615 59.4332 59.5805 58.2365 57.0959C57.5811 55.7351 56.6309 54.4867 55.2066 53.9217C54.3763 53.5924 53.6127 53.4717 52.6049 53.5563C52.341 53.5784 50.7645 54.3314 50.3819 54.5014C48.1708 55.4838 46.5557 56.0287 44.1388 56.5083C39.7614 57.3769 38.4928 57.3827 34.123 57.3827C31.7722 57.3827 29.0509 56.8337 26.928 55.9975C24.2947 54.9604 21.5883 52.9589 19.9605 50.6892C19.4561 49.9858 18.9303 49.1788 18.5466 48.4072C17.9823 47.2725 17.5357 46.2049 17.1369 44.8669C15.5247 39.4577 15.381 31.422 17.2178 25.8931C17.9311 23.746 19.1159 21.4883 20.5475 19.719L22.9313 17.3509C23.8621 16.6198 24.724 16.053 25.8287 15.4963C26.8782 14.9674 28.0669 14.5623 29.3314 14.2469C32.1788 13.5367 33.0364 13.6265 35.8391 13.6265C39.5508 13.6265 43.3877 14.411 46.4371 15.6347L49.9817 17.1061C50.8701 17.4856 51.1204 17.7183 52.2074 17.7183C53.7821 17.7183 55.2673 16.1621 56.0355 15.0124C57.8607 12.2811 58.4494 8.06824 55.9545 5.52384C54.8767 4.42476 50.9044 2.86319 49.3118 2.33254C46.55 1.41234 42.6727 0.562055 39.5901 0.240123C33.0022 -0.447793 25.5541 0.314577 19.555 2.88721L17.3805 3.88073C10.6948 7.19646 5.54831 13.2296 2.76226 20.1501C1.32878 23.7108 0.679946 26.599 0.252429 30.3779C0.112472 31.6145 0.000291059 33.035 0.000291059 34.4156L0.000244141 34.4157Z" fill="#333333"/>
<path fill-rule="evenodd" clip-rule="evenodd" d="M37.8849 37.2532C37.6598 37.1717 37.8398 37.26 37.6645 37.0775L33.9346 33.1515C33.808 32.9928 33.6894 32.8969 33.544 32.7501L31.2639 30.0803C30.1685 28.7215 29.5198 27.8141 28.5906 26.2857C28.4791 26.1021 28.4141 25.9497 28.3117 25.7726C27.7908 24.8717 27.8461 24.6721 26.9798 23.8046C26.0893 22.9129 24.228 23.366 23.3173 24.1384L22.9417 24.4888C22.9019 24.5285 22.8578 24.5797 22.8153 24.6264C22.0593 25.4578 21.8874 26.2631 21.5825 27.3536C20.6173 30.8056 20.5265 32.5184 20.5265 36.1312C20.5265 38.4086 21.2748 42.6514 22.0432 44.5802C23.339 47.8329 27.5886 48.0473 27.5886 45.5029C27.5886 44.3934 26.0046 41.3649 26.0046 35.2073C26.0046 34.4382 26.0706 33.9229 26.0706 33.1613L27.3051 34.5668C28.0552 35.4588 31.791 39.2473 32.6864 40.0753C33.4314 40.7644 34.4217 41.8053 34.9906 42.2591C35.4326 42.6117 37.5206 44.8324 38.1336 45.452C38.3196 45.6399 38.3741 45.7616 38.56 45.9496C39.524 46.9238 39.7428 47.2187 41.3169 47.2187C42.2714 47.2187 42.9167 46.8551 43.3611 46.0949C44.0025 44.9979 43.6528 43.7934 43.6252 42.6666C43.5982 41.5596 43.4149 40.0127 43.3628 38.9692C43.3346 38.4032 43.2969 38.0197 43.2969 37.4511H46.927C48.5293 37.4511 49.8502 37.8063 50.8132 36.5193C51.7659 35.246 51.4874 32.5348 48.3794 32.369C47.4781 32.3209 44.8475 32.4256 44.3049 32.3512C43.8705 32.2917 43.4834 32.2644 43.0329 32.3693C43.0329 31.7235 42.9691 30.8244 43.0607 30.2192L43.1648 28.1455L49.633 28.2115C50.0968 28.2115 50.6957 28.0601 51.0305 27.827C51.7101 27.3539 52.1178 26.4835 52.0579 25.7216C51.9897 24.8558 51.8222 24.4956 51.3007 23.97C50.9066 23.5728 50.2695 23.2617 49.501 23.2617H40.8548C39.6234 23.2617 38.7347 24.121 38.4028 25.0337C37.8693 26.5004 37.8848 35.895 37.8848 37.2531L37.8849 37.2532Z" fill="#6590FF"/>
<path fill-rule="evenodd" clip-rule="evenodd" d="M73.7896 12.3722C73.7896 12.8764 74.0389 13.3486 74.2877 13.722L75.3552 15.2946C75.9259 16.0455 77.2256 18.4084 77.6203 19.2994L78.7078 21.7758C79.2903 23.1385 79.9167 25.0205 80.2306 26.4568L80.972 30.2033C81.0128 30.5868 81.0298 30.6245 81.0901 30.9432C81.1407 31.2105 81.1123 31.5187 81.1531 31.8041C81.4104 33.6033 81.4124 37.5448 81.1525 39.3357C81.1117 39.6166 81.1372 39.8665 81.1 40.1412L80.5842 43.1893C80.521 43.711 79.872 46.0268 79.648 46.741L77.6196 51.8404C77.0838 53.0193 76.4104 54.1809 75.718 55.2847C75.2747 55.9915 74.7961 56.7384 74.2705 57.4012C73.5782 58.2741 73.6813 59.7319 74.5423 60.4576C74.7809 60.6586 74.9578 60.7953 75.2621 60.9259L75.905 61.1422C76.1565 61.1791 76.3861 61.1465 76.6115 61.062C77.0515 60.8971 77.5023 60.7126 77.8155 60.352C77.8991 60.2559 78.0151 60.1324 78.0902 60.0326C78.1812 59.9116 78.2186 59.8091 78.3161 59.6645L79.4856 57.9301C79.493 57.9178 79.5039 57.9021 79.5113 57.8898L80.3908 56.4594C80.4667 56.3133 80.509 56.2227 80.5999 56.0744L81.0213 55.3078C81.7241 54.1226 82.3943 52.5992 82.8985 51.3112C82.9531 51.1718 82.9924 51.0403 83.0635 50.8822L83.5594 49.5961C83.6129 49.4185 83.6369 49.3439 83.7046 49.1474L84.1517 47.8126C84.2422 47.5323 84.3509 47.1906 84.4213 46.8942L85.0082 44.5112C85.0575 44.321 85.1063 44.2359 85.132 44.0409C85.2274 43.3168 85.3975 42.7605 85.4839 42.017C85.5207 41.7008 85.6174 41.2723 85.6539 40.9989C85.7074 40.599 85.699 40.3025 85.7557 39.9128C85.8017 39.5961 85.8718 39.2503 85.8694 38.8386C85.8641 37.9048 85.9999 37.8914 85.9999 37.7811V33.6892C85.9999 33.2476 85.8645 33.1528 85.8656 32.6355C85.8673 31.8181 85.6866 31.2573 85.6701 30.4552C85.6607 29.9986 85.5727 29.8768 85.532 29.4052L85.2898 27.8656C85.2473 27.6829 85.2044 27.5843 85.1696 27.3918L83.6243 21.7433C83.5116 21.4365 83.438 21.1809 83.3124 20.8672L82.5577 18.9819C82.55 18.964 82.4694 18.7919 82.4521 18.7576L82.255 18.2947C81.9001 17.3711 81.3304 16.4091 80.8631 15.5287C80.7799 15.372 80.7354 15.2879 80.6504 15.1474C80.0214 14.1087 78.2197 10.7795 77.1357 10.2801L76.6546 10.1013C76.3651 9.98145 75.9968 9.9503 75.7001 10.0586L75.5083 10.1309C75.3695 10.1774 75.4152 10.1527 75.2623 10.2149C74.9629 10.3369 74.7956 10.471 74.5424 10.6831C74.186 10.9818 73.7896 11.7365 73.7896 12.3722L73.7896 12.3722Z" fill="#6590FF"/>
<path fill-rule="evenodd" clip-rule="evenodd" d="M64.7476 17.9821C64.7476 19.0167 65.314 19.4507 65.8413 20.3203C66.6373 21.6329 67.0793 22.1376 67.8489 23.8566C67.9255 24.0278 67.9728 24.1914 68.0595 24.3721C68.1375 24.5345 68.2023 24.649 68.2943 24.8632C68.3855 25.0756 68.4084 25.1696 68.4923 25.3913C68.5575 25.564 68.6181 25.665 68.6898 25.8537L69.2176 27.4378C69.6075 28.5922 69.6771 29.2604 69.9158 30.2376C70.4063 32.2465 70.4237 34.4515 70.4237 36.5274C70.4237 37.4619 70.2304 38.6768 70.2261 39.1017C70.2207 39.6394 69.7176 41.9175 69.5428 42.5763C68.9206 44.9222 68.208 46.651 67.0731 48.8183C66.4557 49.9973 64.9738 51.9183 64.8273 52.5125C64.2764 54.7476 66.9208 56.461 68.7342 54.7032C69.05 54.3971 70.529 52.0857 70.7639 51.6509C71.5857 50.1299 72.4767 48.4978 73.0296 46.8548C73.1216 46.5815 73.2404 46.3128 73.3125 46.0816C73.4061 45.7811 73.4579 45.6367 73.5583 45.3375L74.5829 41.2143L74.9686 38.5641L75.016 33.7173C74.9186 33.0733 74.9908 32.3671 74.8603 31.8271C74.7699 31.4529 74.8204 31.32 74.7643 30.9331L73.8377 26.7119C73.8009 26.5723 73.773 26.5335 73.7241 26.3634L73.4936 25.538C73.4419 25.3737 73.3911 25.3021 73.3428 25.1607C73.2467 24.8795 73.1844 24.7054 73.0832 24.4305L71.8629 21.5588C71.24 20.1989 69.7373 17.6614 68.7903 16.5135C67.9249 15.4645 66.2745 15.4407 65.3246 16.5133C65.0483 16.8252 64.7476 17.416 64.7476 17.9821V17.9821Z" fill="#6590FF"/>
<path fill-rule="evenodd" clip-rule="evenodd" d="M56.4313 24.978C56.4313 25.9638 57.0675 26.4744 57.46 27.1173C58.0629 28.1048 58.3722 28.7327 58.8016 29.8015C58.8713 29.9748 58.8702 29.9379 58.9211 30.078C59.1111 30.6012 59.6422 32.4125 59.6658 32.8973C59.6925 33.4432 59.8634 33.7316 59.8634 34.3497C59.8634 35.209 59.9112 36.6044 59.8021 37.3902C59.7083 38.0655 59.4758 39.4116 59.2593 40.0154C59.2168 40.1342 59.1902 40.185 59.1566 40.3085C59.1038 40.5026 59.1326 40.4557 59.0695 40.6175C58.76 41.412 58.7751 41.4864 58.3555 42.3454L57.7458 43.5177C57.4424 44.0236 56.7476 44.9745 56.6125 45.3543C56.3012 46.2295 56.3546 46.9247 57.0432 47.7292C57.2082 47.9219 57.4104 48.0489 57.6495 48.1789C58.5206 48.6523 59.5251 48.5951 60.2508 47.9363C60.265 47.9234 60.3057 47.8864 60.3195 47.8731C61.2078 47.0153 62.0691 45.2338 62.6579 44.0735L63.4626 42.0403L64.4171 37.7811C64.4509 37.0066 64.5495 36.3985 64.5495 35.6035C64.5495 35.1216 64.4087 33.0143 64.2852 32.502L64.0233 31.0479C63.9743 30.7819 63.9524 30.816 63.8952 30.5821L63.034 27.9453C62.4159 26.5281 61.4142 24.4121 60.3855 23.334C60.3761 23.3241 60.3625 23.3101 60.353 23.3005C58.9492 21.8837 56.4313 22.9409 56.4313 24.9779V24.978Z" fill="#6590FF"/>
</g>
<defs>
<clipPath id="clip0_78_200">
<rect width="86" height="71" fill="white"/>
</clipPath>
</defs>
</svg>
