<svg width="100" height="76" viewBox="0 0 100 76" fill="none" xmlns="http://www.w3.org/2000/svg">
<path fill-rule="evenodd" clip-rule="evenodd" d="M0.000244141 36.8392C0.000244141 40.9516 0.0271615 43.5351 0.706474 47.5775C1.23272 50.7092 1.98038 53.5674 3.0984 56.3474L4.52066 59.4465C5.21358 60.7777 6.26546 62.4071 7.12521 63.5532L8.6358 65.4336C8.7398 65.5454 8.81754 65.6014 8.91863 65.7159L10.2614 67.1283C11.1772 68.0471 12.9396 69.4375 14.0163 70.1553C15.8511 71.3785 17.7036 72.385 19.9011 73.2424C23.3309 74.5807 26.9964 75.3626 30.8127 75.7534C35.4318 76.2265 41.6479 75.9856 46.031 75.3109C47.3559 75.107 48.5173 74.874 49.7624 74.5917C51.7692 74.1368 54.7253 73.2042 56.6493 72.5068C57.5597 72.1768 58.9963 71.6335 59.8078 71.144L61.0544 70.2005C63.6116 68.0949 63.6145 63.7763 62.3337 61.1166C61.6321 59.66 60.6151 58.3237 59.0906 57.719C58.2019 57.3665 57.3846 57.2372 56.3059 57.3278C56.0234 57.3515 54.336 58.1574 53.9265 58.3394C51.5598 59.391 49.8311 59.9744 47.2442 60.4877C42.5588 61.4174 41.2009 61.4237 36.5237 61.4237C34.0075 61.4237 31.0947 60.836 28.8225 59.941C26.0039 58.8308 23.1071 56.6883 21.3648 54.2587C20.8249 53.5059 20.2621 52.642 19.8514 51.816C19.2474 50.6014 18.7694 49.4587 18.3426 48.0265C16.617 42.2363 16.4631 33.6348 18.4291 27.7165C19.1926 25.4182 20.4608 23.0015 21.9931 21.1076L24.5446 18.5727C25.5409 17.7902 26.4634 17.1835 27.6459 16.5875C28.7692 16.0213 30.0415 15.5878 31.3949 15.2501C34.4427 14.4899 35.3606 14.586 38.3605 14.586C42.3334 14.586 46.4403 15.4258 49.7041 16.7356L53.4981 18.3107C54.449 18.717 54.7169 18.966 55.8805 18.966C57.5659 18.966 59.1555 17.3002 59.9779 16.0696C61.9315 13.1459 62.5616 8.63635 59.8911 5.91277C58.7375 4.73629 54.4858 3.06475 52.7811 2.49672C49.825 1.51173 45.6749 0.60156 42.3754 0.256957C35.3241 -0.479404 27.3519 0.336654 20.9308 3.09046L18.6033 4.15395C11.4472 7.70318 5.93864 14.1612 2.95659 21.569C1.42224 25.3805 0.727767 28.4721 0.270171 32.5171C0.120368 33.8407 0.00029436 35.3613 0.00029436 36.8392L0.000244141 36.8392Z" fill="white"/>
<path fill-rule="evenodd" clip-rule="evenodd" d="M41.0308 39.1505C40.8587 39.0885 40.9963 39.1558 40.8623 39.0167L38.011 36.0258C37.9142 35.9049 37.8236 35.8319 37.7124 35.7201L35.9694 33.6862C35.132 32.6511 34.6362 31.9598 33.9258 30.7955C33.8405 30.6556 33.7909 30.5395 33.7126 30.4046C33.3144 29.7183 33.3567 29.5662 32.6944 28.9054C32.0137 28.226 30.5908 28.5713 29.8946 29.1597L29.6075 29.4266C29.5771 29.4569 29.5434 29.4958 29.5109 29.5314C28.9329 30.1648 28.8016 30.7783 28.5685 31.609C27.8307 34.2387 27.7612 35.5436 27.7612 38.2958C27.7612 40.0307 28.3333 43.2629 28.9207 44.7323C29.9112 47.2102 33.1599 47.3736 33.1599 45.4352C33.1599 44.59 31.9489 42.2829 31.9489 37.592C31.9489 37.0061 31.9994 36.6136 31.9994 36.0334L32.9431 37.1041C33.5165 37.7835 36.3723 40.6697 37.0568 41.3005C37.6264 41.8254 38.3834 42.6184 38.8182 42.9641C39.1562 43.2327 40.7523 44.9244 41.2209 45.3964C41.3631 45.5396 41.4047 45.6323 41.5469 45.7755C42.2838 46.5177 42.451 46.7423 43.6544 46.7423C44.384 46.7423 44.8773 46.4653 45.217 45.8862C45.7074 45.0505 45.44 44.1329 45.4189 43.2745C45.3983 42.4312 45.2581 41.2528 45.2183 40.4578C45.1968 40.0267 45.168 39.7345 45.168 39.3013H47.943C49.1678 39.3013 50.1776 39.5719 50.9138 38.5915C51.642 37.6215 51.4292 35.5561 49.0532 35.4297C48.3643 35.3931 46.3533 35.4729 45.9386 35.4162C45.6065 35.3709 45.3105 35.35 44.9661 35.43C44.9661 34.938 44.9174 34.2531 44.9874 33.7921L45.067 32.2123L50.0115 32.2626C50.3661 32.2626 50.8239 32.1472 51.0799 31.9696C51.5994 31.6092 51.9111 30.9461 51.8652 30.3657C51.8131 29.7061 51.6851 29.4318 51.2864 29.0314C50.9852 28.7288 50.4982 28.4918 49.9106 28.4918H43.3011C42.3597 28.4918 41.6804 29.1464 41.4267 29.8417C41.0189 30.9591 41.0308 38.1159 41.0308 39.1505Z" fill="#6590FF"/>
<path fill-rule="evenodd" clip-rule="evenodd" d="M86.2867 13.2439C86.2867 13.7836 86.5535 14.289 86.8198 14.6887L87.9624 16.372C88.5732 17.1757 89.9644 19.7051 90.3868 20.6588L91.5509 23.3096C92.1743 24.7683 92.8449 26.7828 93.1808 28.3203L93.9744 32.3306C94.018 32.7411 94.0363 32.7815 94.1008 33.1226C94.1549 33.4088 94.1245 33.7387 94.1682 34.0442C94.4436 35.97 94.4458 40.1891 94.1675 42.1062C94.1239 42.4068 94.1513 42.6743 94.1114 42.9684L93.5593 46.2311C93.4917 46.7895 92.797 49.2685 92.5573 50.0329L90.3861 55.4915C89.8126 56.7533 89.0919 57.9968 88.3507 59.1783C87.8763 59.9348 87.364 60.7344 86.8014 61.4438C86.0604 62.3782 86.1708 63.9387 87.0924 64.7155C87.3477 64.9307 87.537 65.077 87.8627 65.2167L88.5509 65.4483C88.8201 65.4878 89.0659 65.4529 89.3071 65.3625C89.778 65.1859 90.2606 64.9884 90.5959 64.6025C90.6853 64.4996 90.8094 64.3674 90.8898 64.2606C90.9872 64.131 91.0272 64.0214 91.1316 63.8666L92.3834 62.01C92.3913 61.9969 92.403 61.98 92.411 61.9669L93.3523 60.4357C93.4335 60.2793 93.4788 60.1824 93.5761 60.0236L94.0271 59.2031C94.7794 57.9344 95.4967 56.3037 96.0364 54.925C96.0948 54.7757 96.1369 54.635 96.213 54.4658L96.7439 53.0891C96.8011 52.899 96.8267 52.8191 96.8992 52.6088L97.3778 51.18C97.4747 50.8799 97.591 50.5142 97.6664 50.1969L98.2946 47.6461C98.3473 47.4425 98.3996 47.3514 98.4271 47.1427C98.5292 46.3676 98.7112 45.7721 98.8038 44.9762C98.8431 44.6378 98.9466 44.1791 98.9857 43.8865C99.0429 43.4584 99.034 43.141 99.0946 42.7238C99.1439 42.3849 99.2189 42.0147 99.2163 41.574C99.2106 40.5744 99.356 40.5601 99.356 40.442V36.062C99.356 35.5893 99.2111 35.4878 99.2122 34.9341C99.2141 34.0592 99.0206 33.4588 99.003 32.6002C98.993 32.1115 98.8988 31.9811 98.8552 31.4764L98.596 29.8283C98.5504 29.6327 98.5045 29.5272 98.4673 29.3211L96.8133 23.2748C96.6927 22.9464 96.6139 22.6728 96.4794 22.3371L95.6716 20.319C95.6634 20.2998 95.5771 20.1156 95.5586 20.0789L95.3476 19.5833C94.9678 18.5948 94.358 17.565 93.8578 16.6226C93.7688 16.4548 93.7211 16.3648 93.6301 16.2145C92.957 15.1026 91.0285 11.5389 89.8682 11.0044L89.3532 10.813C89.0434 10.6847 88.6492 10.6513 88.3315 10.7673L88.1263 10.8447C87.9777 10.8944 88.0267 10.868 87.863 10.9346C87.5425 11.0652 87.3634 11.2087 87.0925 11.4358C86.711 11.7555 86.2866 12.5634 86.2866 13.2438L86.2867 13.2439Z" fill="#6590FF"/>
<path fill-rule="evenodd" clip-rule="evenodd" d="M76.6084 19.2487C76.6084 20.3561 77.2146 20.8206 77.7791 21.7515C78.6311 23.1566 79.1042 23.6968 79.9279 25.5369C80.0099 25.7201 80.0605 25.8952 80.1534 26.0886C80.2368 26.2625 80.3062 26.3851 80.4047 26.6143C80.5023 26.8417 80.5268 26.9423 80.6166 27.1796C80.6864 27.3645 80.7513 27.4726 80.8279 27.6746L81.393 29.3703C81.8102 30.6059 81.8848 31.3212 82.1402 32.3672C82.6653 34.5176 82.6839 36.8778 82.6839 39.1C82.6839 40.1002 82.477 41.4008 82.4724 41.8556C82.4666 42.4311 81.9281 44.8696 81.741 45.5748C81.075 48.0859 80.3123 49.9365 79.0975 52.2565C78.4368 53.5184 76.8506 55.5747 76.6938 56.2107C76.104 58.6033 78.9345 60.4373 80.8756 58.5557C81.2136 58.228 82.7966 55.7539 83.048 55.2885C83.9276 53.6604 84.8813 51.9134 85.4732 50.1546C85.5716 49.8621 85.6988 49.5745 85.7759 49.327C85.8761 49.0053 85.9315 48.8508 86.039 48.5305L87.1357 44.1169L87.5485 41.28L87.5992 36.092C87.495 35.4026 87.5723 34.6467 87.4326 34.0686C87.3358 33.668 87.3899 33.5259 87.3298 33.1117L86.338 28.5932C86.2987 28.4438 86.2688 28.4022 86.2165 28.2202L85.9697 27.3366C85.9144 27.1608 85.8601 27.0842 85.8084 26.9328C85.7055 26.6318 85.6388 26.4454 85.5305 26.1511L84.2243 23.0772C83.5577 21.6216 81.9492 18.9054 80.9356 17.6766C80.0093 16.5537 78.2427 16.5283 77.226 17.6764C76.9303 18.0103 76.6084 18.6427 76.6084 19.2486V19.2487Z" fill="#6590FF"/>
<path fill-rule="evenodd" clip-rule="evenodd" d="M67.7072 26.737C67.7072 27.7922 68.3881 28.3389 68.8082 29.027C69.4535 30.0841 69.7846 30.7561 70.2442 31.9003C70.3188 32.0858 70.3176 32.0462 70.3721 32.1962C70.5755 32.7562 71.1439 34.6951 71.1692 35.214C71.1978 35.7984 71.3807 36.1071 71.3807 36.7687C71.3807 37.6885 71.4319 39.1823 71.315 40.0234C71.2147 40.7462 70.9658 42.1871 70.7341 42.8334C70.6886 42.9605 70.6601 43.0149 70.6241 43.1472C70.5677 43.3549 70.5985 43.3047 70.531 43.4779C70.1996 44.3284 70.2159 44.408 69.7667 45.3275L69.1141 46.5824C68.7894 47.1238 68.0456 48.1417 67.9011 48.5483C67.5679 49.4851 67.625 50.2293 68.3621 51.0904C68.5386 51.2967 68.7551 51.4327 69.011 51.5718C69.9434 52.0785 71.0185 52.0173 71.7953 51.3122C71.8105 51.2983 71.8541 51.2587 71.8689 51.2445C72.8197 50.3263 73.7415 48.4193 74.3718 47.1773L75.2331 45.0009L76.2548 40.4418C76.2909 39.6127 76.3965 38.9619 76.3965 38.1108C76.3965 37.5949 76.2458 35.3393 76.1136 34.7909L75.8333 33.2344C75.7808 32.9496 75.7573 32.9861 75.6961 32.7358L74.7743 29.9133C74.1127 28.3963 73.0406 26.1313 71.9396 24.9772C71.9295 24.9667 71.9149 24.9517 71.9047 24.9414C70.4022 23.4248 67.7072 24.5565 67.7072 26.737V26.737Z" fill="#6590FF"/>
</svg>
