<svg width="65" height="48" viewBox="0 0 65 48" fill="none" xmlns="http://www.w3.org/2000/svg">
<path d="M4.76837e-07 48C4.76837e-07 46.5333 4.76837e-07 45.1333 4.76837e-07 43.8C4.76837e-07 42.3333 0.0666673 40.9333 0.200001 39.6C0.733334 32.6667 2.26667 25.8 4.8 19C7.33333 12.2 10.4 5.86666 14 -1.00136e-05L28.4 4.59999C25.6 10.4667 23.4667 16.4 22 22.4C20.6667 28.4 20 34 20 39.2C20 40.5333 20 42 20 43.6C20.1333 45.0667 20.2667 46.5333 20.4 48H4.76837e-07ZM36.4 48C36.4 46.5333 36.4 45.1333 36.4 43.8C36.4 42.3333 36.4667 40.9333 36.6 39.6C37.1333 32.6667 38.6667 25.8 41.2 19C43.7333 12.2 46.8 5.86666 50.4 -1.00136e-05L64.8 4.59999C62 10.4667 59.8667 16.4 58.4 22.4C57.0667 28.4 56.4 34 56.4 39.2C56.4 40.5333 56.4 42 56.4 43.6C56.5333 45.0667 56.6667 46.5333 56.8 48H36.4Z" fill="white"/>
</svg>
