<svg style="display: none;" aria-hidden="true" xmlns="http://www.w3.org/2000/svg" xmlns:xlink="http://www.w3.org/1999/xlink"><symbol viewBox="0 0 25 26" id="svg-tg" xmlns="http://www.w3.org/2000/svg"><path d="M12.698 22.773a9.773 9.773 0 1 0 0-19.546 9.773 9.773 0 0 0 0 19.546Zm0 2.444C5.951 25.217.481 19.747.481 13 .481 6.253 5.951.783 12.698.783c6.748 0 12.217 5.47 12.217 12.217 0 6.747-5.47 12.217-12.217 12.217Zm-3.8-10.788-3.05-.951c-.66-.202-.664-.656.147-.983l11.89-4.593c.69-.281 1.082.074.858.965l-2.024 9.554c-.142.68-.551.843-1.12.529l-3.116-2.307-1.452 1.403c-.15.144-.27.267-.5.298-.228.031-.417-.037-.555-.416l-1.062-3.507-.015.01v-.002Z"/></symbol><symbol viewBox="0 0 25 26" id="svg-viber" xmlns="http://www.w3.org/2000/svg"><path d="M6.106 23.298c0-.353-.018-.708.006-1.06.02-.286-.09-.415-.369-.504-1.735-.556-3.087-1.59-4.008-3.143-.64-1.082-1.017-2.257-1.189-3.487-.382-2.757-.374-5.511.225-8.242.298-1.357.868-2.605 1.812-3.665.684-.772 1.557-1.279 2.496-1.682C6.66.836 8.336.535 10.047.379c1.246-.114 2.494-.096 3.738-.044 2.082.089 4.107.44 6.03 1.28 1.87.816 3.066 2.197 3.73 4.058.478 1.334.699 2.715.795 4.12.133 1.935.01 3.853-.282 5.764-.224 1.473-.753 2.839-1.725 4.011-.837 1.01-1.902 1.701-3.152 2.12-1.816.609-3.69.89-5.605.987-1 .05-1.991.006-2.985-.033a.445.445 0 0 0-.394.172c-.611.7-1.226 1.398-1.845 2.092-.223.25-.456.495-.757.66-.572.31-1.16.09-1.373-.515-.2-.573-.092-1.169-.116-1.753Zm.935 1.417c.076-.056.104-.07.126-.093 1.027-1.114 2.066-2.217 3.073-3.347.32-.357.639-.528 1.15-.507 2.247.092 4.461-.143 6.628-.76.932-.266 1.768-.687 2.462-1.36.98-.952 1.493-2.136 1.715-3.44.3-1.758.413-3.529.28-5.312-.092-1.246-.286-2.47-.74-3.643-.419-1.078-1.036-2.011-2.09-2.6-.904-.503-1.872-.836-2.883-1.054-2.007-.436-4.038-.502-6.078-.396-1.408.074-2.782.315-4.113.781-1.906.67-3.166 1.935-3.763 3.834-.312.99-.481 2-.529 3.031-.08 1.769-.146 3.535.225 5.284.489 2.308 1.713 4.044 4.065 4.85.389.133.485.316.48.69-.022 1.327-.008 2.655-.008 4.042Z"/><path d="M15.965 18.35c-.203.005-.389-.055-.572-.128-2.052-.82-3.904-1.951-5.48-3.477-1.876-1.81-3.293-3.912-4.159-6.363-.274-.774-.102-1.387.533-1.892.287-.23.583-.453.89-.66.565-.381 1.132-.327 1.592.172.58.629 1.11 1.3 1.541 2.038.093.157.164.328.223.5.132.376.08.72-.24.995-.213.185-.432.364-.647.546-.264.225-.343.505-.268.84.254 1.138.974 1.971 1.847 2.702.52.436 1.092.787 1.76.974.348.098.626.013.847-.259.13-.16.256-.322.386-.48.349-.428.854-.567 1.35-.324.947.467 1.769 1.111 2.546 1.807.25.226.38.548.25.883-.343.895-.927 1.595-1.822 2.017a1.202 1.202 0 0 1-.577.108ZM18.094 11.41c-.057.179.098.472-.172.495-.3.025-.193-.29-.207-.45-.065-.827-.175-1.642-.542-2.398-.909-1.873-2.433-2.887-4.542-3.06-.109-.01-.219-.005-.327-.016-.133-.016-.284-.037-.27-.212.011-.15.147-.164.272-.172.307-.02.613.027.914.075 2.616.428 4.549 2.461 4.799 5.043.024.235.051.469.075.694Z"/><path d="M16.566 10.893c0 .02.002.042 0 .063-.014.145.028.343-.183.353-.217.01-.203-.19-.207-.334-.01-.364-.04-.727-.158-1.076-.453-1.332-1.394-2.11-2.804-2.352-.161-.027-.325-.048-.484-.075-.119-.022-.215-.081-.196-.213.02-.133.132-.156.25-.146 1.71.123 3.18 1.074 3.646 2.862.077.299.105.609.156.915l-.02.002Z"/><path d="M13.296 8.685c.985.042 1.778.871 1.76 1.833-.002.118.002.259-.152.282-.193.03-.191-.135-.219-.255-.047-.198-.065-.405-.134-.594-.171-.472-.534-.742-1.027-.852-.085-.02-.175-.021-.258-.042-.13-.035-.32-.033-.28-.236.027-.167.193-.13.31-.136Z"/></symbol><symbol viewBox="0 0 26 26" id="svg-wa" xmlns="http://www.w3.org/2000/svg"><path d="m7.22 20.934.884.516a9.715 9.715 0 0 0 4.915 1.323A9.773 9.773 0 1 0 3.245 13c0 1.754.461 3.437 1.325 4.916l.515.885-.797 2.933 2.932-.8ZM.807 25.217l1.652-6.07A12.16 12.16 0 0 1 .802 13C.802 6.253 6.272.783 13.019.783c6.747 0 12.217 5.47 12.217 12.217 0 6.747-5.47 12.217-12.217 12.217a12.16 12.16 0 0 1-6.145-1.655L.807 25.216ZM8.61 7.267a4.14 4.14 0 0 1 .492-.004c.066.005.132.012.198.02.194.021.408.14.48.304.364.826.719 1.657 1.06 2.492.076.186.031.424-.113.656-.1.157-.206.309-.321.454-.138.178-.435.502-.435.502s-.121.145-.075.324c.017.069.074.168.125.25l.072.117c.313.521.733 1.05 1.246 1.549.147.142.29.287.444.423a7.34 7.34 0 0 0 1.918 1.221l.006.003c.104.045.156.07.308.134.075.032.154.06.233.08a.428.428 0 0 0 .448-.158c.885-1.072.966-1.141.973-1.141v.002a.587.587 0 0 1 .462-.155.633.633 0 0 1 .216.049c.649.297 1.71.76 1.71.76l.711.319c.12.057.229.193.232.323.005.082.013.214-.015.456-.04.317-.135.697-.23.896-.066.136-.152.26-.257.369-.123.13-.258.247-.403.351-.05.038-.101.075-.153.11a6.16 6.16 0 0 1-.468.27 2.431 2.431 0 0 1-1.017.28c-.226.012-.452.03-.68.017-.01 0-.693-.106-.693-.106a11.544 11.544 0 0 1-4.692-2.5c-.276-.243-.531-.504-.793-.764-1.087-1.082-1.908-2.248-2.406-3.35a4.24 4.24 0 0 1-.405-1.728 3.334 3.334 0 0 1 .69-2.052c.089-.115.173-.235.318-.373.155-.146.253-.224.36-.278.14-.071.295-.113.453-.122Z"/></symbol></svg>